@startuml

' Define classes
package Simulation {
    class Modele {
        +name: String
        +type: String
        +weight: float
        +dimensions: String
    }

    class Drone {
        +id: String
        +model: Model
        +batteryLevel: int
        +location: String
        +videoStream: VideoStream
        +sensors: List<Sensor>
        +pilotDrone(): void
    }

    abstract class Module{
    }

    class Capteur{
        +type: String
        +data: String
        +getData(): String
    }

    class Systeme{
        +name: String
        +type: String
        +status: String
        +getStatus(): String
        +doAction(): void
    }



    class Évènement {
        +type: String
        +location: String
        +description: String
    }




    class Simulateur {
        +map: String
        +weatherConditions: String
        +startSimulation(): void
        +stopSimulation(): void
        +changeMap(): void
        +manageSimulation(): void
        +configureDrone(): void
    }
}

package Réseau {
    abstract ControleurDrone {
        +getMotorSpeed(index: int): float
        +getSensorReading(Sensor sensor): void
        +setMotorSpeed(index: int, value: float): void
    }

    class ArduSubRemoteControler {
    }

}



package Utilisateurs {
    class Pilote {
        +Drone drone
    }

    class MDJ {
        +addDroneAssociation()
        +addEvent()
        +removeEvent()
        +Simulateur.startSimulation()
    }

    class Observateur {
        +viewEnvironment(): void
        +followDrone(drone: Drone): void
        +consultDroneInfo(drone: Drone): void
    }

    class Admin {
        +createUser(user: Utilisateur): void
        +deleteUser(user: Utilisateur): void
        +excludeUser(user: Utilisateur): void
    }

    class Utilisateur {
        +username: String
        +password: String
        +ValidKeys: List<String>
}
}


' Define relationships
Observateur <|-- MDJ
Utilisateur <|-- Pilote
Utilisateur <|-- Observateur
Utilisateur <|-- Admin

Simulateur "1" -- "1..n" Drone : gère
Simulateur "1" -- "1" MDJ : gère
Simulateur "1" -- "0..n" Observateur : observe
Simulateur "1" -- "1..n" Pilote : gère
Simulateur "1" -- "1" Admin : gère
Simulateur "1" -- "0..n" Évènement : gère

Pilote "1" -- "1" ControleurDrone : pilote
Drone "1..n" -- "1" Modele : est un type
Drone "1" -- "1" ControleurDrone : Possède

ArduSubRemoteControler --|> ControleurDrone

Capteur --|> Module
Systeme --|> Module
Drone "1" -- "0..n" Module : possède
@enduml
